# Made in Blockbench 5.0.7
mtllib 32.mtl

o mesh
v 1 2 1
v 1 2 -1
v 1 0 1
v 1 0 -1
v -1 2 1
v -1 2 -1
v -1 0 1
v -1 0 -1
vt 0.25 1
vt 0 1
vt 0 0.75
vt 0.25 0.75
vt 0.25 0.4921875
vt 0.25 0.7421875
vt 0 0.7421875
vt 0 0.4921875
vt 0.2578125 0.75
vt 0.5078125 0.75
vt 0.5078125 1
vt 0.2578125 1
vt 0.5078125 0.4921875
vt 0.5078125 0.7421875
vt 0.2578125 0.7421875
vt 0.2578125 0.4921875
vt 0.25 0.234375
vt 0.25 0.484375
vt 0 0.484375
vt 0 0.234375
vt 0.765625 1
vt 0.515625 1
vt 0.515625 0.75
vt 0.765625 0.75
vn 1 0 0
vn -1 0 0
vn 0 1 0
vn 0 -1 0
vn 0 0 1
vn 0 0 -1
usemtl m_23883568-296b-436f-be47-571e047dfa2b
f 2/1/1 1/2/1 3/3/1 4/4/1
f 7/5/2 5/6/2 6/7/2 8/8/2
f 5/9/3 1/10/3 2/11/3 6/12/3
f 4/13/4 3/14/4 7/15/4 8/16/4
f 3/17/5 1/18/5 5/19/5 7/20/5
f 6/21/6 2/22/6 4/23/6 8/24/6